<svg width="327" height="368" viewBox="0 0 327 368" fill="none" xmlns="http://www.w3.org/2000/svg">
<path d="M3.042 104.78H1.001V95.16H3.042L5.902 102.336L8.775 95.16H10.842V104.78H8.801V102.765C8.801 100.685 8.801 100.23 8.905 99.515L6.864 104.78H4.94L2.912 99.515C3.029 100.23 3.042 101.036 3.042 102.089V104.78ZM12.2477 101.517C12.2477 99.463 13.7557 98.085 15.8357 98.085C17.9027 98.085 19.4107 99.463 19.4107 101.517C19.4107 103.571 17.9027 104.936 15.8357 104.936C13.7557 104.936 12.2477 103.571 12.2477 101.517ZM14.2627 101.504C14.2627 102.492 14.8997 103.142 15.8357 103.142C16.7587 103.142 17.3957 102.492 17.3957 101.504C17.3957 100.529 16.7587 99.879 15.8357 99.879C14.8997 99.879 14.2627 100.529 14.2627 101.504ZM22.5734 104.78H20.5714V98.28H22.4564L22.5864 98.956C22.9894 98.397 23.7304 98.072 24.5754 98.072C26.1224 98.072 27.0194 99.06 27.0194 100.763V104.78H25.0174V101.244C25.0174 100.425 24.5624 99.892 23.8734 99.892C23.0804 99.892 22.5734 100.412 22.5734 101.218V104.78Z" fill="#262942" fill-opacity="0.5"/>
<path d="M8.95197 150.56H7.33197V149C7.36197 148.97 7.39197 148.955 7.42197 148.925L9.83697 146.81H5.65197V144.68H12.882V146.615L10.542 148.67C12.042 149.12 13.257 150.32 13.257 152.21C13.257 154.55 11.367 155.975 9.11697 155.975C6.95697 155.975 5.14197 154.655 5.14197 152.15H7.54197C7.54197 153.245 8.20197 153.83 9.17697 153.83C10.122 153.83 10.767 153.185 10.767 152.195C10.767 151.31 10.257 150.56 8.95197 150.56ZM16.4602 146.855H13.9402V144.68H18.7852V155.78H16.4602V146.855Z" fill="#262942" fill-opacity="0.5"/>
<path d="M10.5709 198.525L12.7459 195.54H15.5209L12.9859 198.945C13.1359 198.915 13.2859 198.9 13.4359 198.9C15.7159 198.9 17.2759 200.475 17.2759 202.755C17.2759 205.185 15.4909 206.835 13.0309 206.835C10.5409 206.835 8.72588 205.065 8.72588 202.74C8.72588 201.375 9.22088 200.37 10.5709 198.525ZM11.2159 202.77C11.2159 203.91 11.9509 204.69 13.0309 204.69C14.0809 204.69 14.8159 203.91 14.8159 202.77C14.8159 201.63 14.0959 200.865 13.0309 200.865C11.9359 200.865 11.2159 201.63 11.2159 202.77Z" fill="black"/>
<path d="M7.47873 250.715H4.95873V248.54H9.80373V259.64H7.47873V250.715ZM14.9266 254.42H13.3066V252.86C13.3366 252.83 13.3666 252.815 13.3966 252.785L15.8116 250.67H11.6266V248.54H18.8566V250.475L16.5166 252.53C18.0166 252.98 19.2316 254.18 19.2316 256.07C19.2316 258.41 17.3416 259.835 15.0916 259.835C12.9316 259.835 11.1166 258.515 11.1166 256.01H13.5166C13.5166 257.105 14.1766 257.69 15.1516 257.69C16.0966 257.69 16.7416 257.045 16.7416 256.055C16.7416 255.17 16.2316 254.42 14.9266 254.42Z" fill="black"/>
<path d="M10.7007 311.61L2.78068 311.64V309.84L6.44068 306.795C7.62568 305.82 8.12068 305.13 8.12068 304.215C8.12068 303.09 7.56568 302.49 6.57568 302.49C5.54068 302.49 4.94068 303.195 4.94068 304.44H2.52568C2.52568 301.95 4.11568 300.33 6.56068 300.33C9.09568 300.33 10.6107 301.695 10.6107 304.065C10.6107 305.58 9.69568 306.81 8.31568 307.965L6.65068 309.36H10.7007V311.61ZM11.6977 306.12C11.6977 302.685 13.6477 300.33 16.5427 300.33C19.4377 300.33 21.3877 302.685 21.3877 306.12C21.3877 309.555 19.5877 311.835 16.5427 311.835C13.4977 311.835 11.6977 309.555 11.6977 306.12ZM14.0977 306.12C14.0977 308.505 14.9977 309.705 16.5427 309.705C18.0877 309.705 18.9877 308.505 18.9877 306.12C18.9877 303.66 18.0877 302.46 16.5427 302.46C14.9977 302.46 14.0977 303.66 14.0977 306.12Z" fill="black"/>
<path d="M11.8945 363.61L3.97453 363.64V361.84L7.63453 358.795C8.81953 357.82 9.31453 357.13 9.31453 356.215C9.31453 355.09 8.75953 354.49 7.76953 354.49C6.73453 354.49 6.13453 355.195 6.13453 356.44H3.71953C3.71953 353.95 5.30953 352.33 7.75453 352.33C10.2895 352.33 11.8045 353.695 11.8045 356.065C11.8045 357.58 10.8895 358.81 9.50953 359.965L7.84453 361.36H11.8945V363.61ZM12.4266 352.54H20.6616V354.79L16.8366 363.64H14.3166L18.2166 354.79H12.4266V352.54Z" fill="black"/>
<path d="M53.26 97.11V95.16H60.826V97.11H58.096V104.78H55.99V97.11H53.26ZM65.3825 98.28H67.3845V104.78H65.4995L65.3695 104.052C64.9665 104.585 64.1605 104.949 63.3805 104.949C61.8985 104.949 60.9885 103.961 60.9885 102.362V98.28H62.9905V101.634C62.9905 102.7 63.3545 103.168 64.1735 103.168C65.0315 103.168 65.3825 102.726 65.3825 101.66V98.28ZM71.7759 104.949C69.8129 104.949 68.4089 103.519 68.4089 101.517C68.4089 99.489 69.7739 98.072 71.7369 98.072C73.7779 98.072 75.0519 99.411 75.0519 101.53V102.037L70.3329 102.063C70.4499 102.921 70.9309 103.324 71.8149 103.324C72.5689 103.324 73.1019 103.051 73.2449 102.583H75.0779C74.8439 104.026 73.5569 104.949 71.7759 104.949ZM71.7499 99.697C70.9569 99.697 70.5149 100.048 70.3589 100.828H73.0629C73.0629 100.139 72.5559 99.697 71.7499 99.697Z" fill="#262942" fill-opacity="0.5"/>
<path d="M57.2694 149.56H55.6494V148C55.6794 147.97 55.7094 147.955 55.7394 147.925L58.1544 145.81H53.9694V143.68H61.1994V145.615L58.8594 147.67C60.3594 148.12 61.5744 149.32 61.5744 151.21C61.5744 153.55 59.6844 154.975 57.4344 154.975C55.2744 154.975 53.4594 153.655 53.4594 151.15H55.8594C55.8594 152.245 56.5194 152.83 57.4944 152.83C58.4394 152.83 59.0844 152.185 59.0844 151.195C59.0844 150.31 58.5744 149.56 57.2694 149.56ZM62.434 149.26C62.434 145.825 64.384 143.47 67.279 143.47C70.174 143.47 72.124 145.825 72.124 149.26C72.124 152.695 70.324 154.975 67.279 154.975C64.234 154.975 62.434 152.695 62.434 149.26ZM64.834 149.26C64.834 151.645 65.734 152.845 67.279 152.845C68.824 152.845 69.724 151.645 69.724 149.26C69.724 146.8 68.824 145.6 67.279 145.6C65.734 145.6 64.834 146.8 64.834 149.26Z" fill="#262942" fill-opacity="0.5"/>
<path d="M59.3855 195.68H67.6205V197.93L63.7955 206.78H61.2755L65.1755 197.93H59.3855V195.68Z" fill="black"/>
<path d="M58.3269 249.855H55.8069V247.68H60.6519V258.78H58.3269V249.855ZM71.3247 256.815H69.9597V258.78H67.6647V256.815H62.1447V254.685L66.9297 247.68H69.9597V254.685H71.3247V256.815ZM64.7247 254.685H67.6647V250.365L64.7247 254.685Z" fill="black"/>
<path d="M63.7368 310.75L55.8168 310.78V308.98L59.4768 305.935C60.6618 304.96 61.1568 304.27 61.1568 303.355C61.1568 302.23 60.6018 301.63 59.6118 301.63C58.5768 301.63 57.9768 302.335 57.9768 303.58H55.5618C55.5618 301.09 57.1518 299.47 59.5968 299.47C62.1318 299.47 63.6468 300.835 63.6468 303.205C63.6468 304.72 62.7318 305.95 61.3518 307.105L59.6868 308.5H63.7368V310.75ZM67.3703 301.855H64.8503V299.68H69.6953V310.78H67.3703V301.855Z" fill="black"/>
<path d="M62.6401 362.61L54.7201 362.64V360.84L58.3801 357.795C59.5651 356.82 60.0601 356.13 60.0601 355.215C60.0601 354.09 59.5051 353.49 58.5151 353.49C57.4801 353.49 56.8801 354.195 56.8801 355.44H54.4651C54.4651 352.95 56.0551 351.33 58.5001 351.33C61.0351 351.33 62.5501 352.695 62.5501 355.065C62.5501 356.58 61.6351 357.81 60.2551 358.965L58.5901 360.36H62.6401V362.61ZM63.6372 359.43C63.6372 358.14 64.3272 357.075 65.4072 356.64C64.5222 356.205 64.0422 355.425 64.0422 354.39C64.0422 352.575 65.6772 351.33 68.0622 351.33C70.4472 351.33 72.0372 352.56 72.0372 354.42C72.0372 355.455 71.5422 356.25 70.6272 356.655C71.7372 357.075 72.4422 358.125 72.4422 359.415C72.4422 361.5 70.7322 362.82 68.0322 362.82C65.3322 362.82 63.6372 361.515 63.6372 359.43ZM66.2322 354.63C66.2322 355.38 66.9222 355.845 68.0172 355.845C69.1122 355.845 69.8022 355.38 69.8022 354.63C69.8022 353.865 69.1122 353.385 68.0172 353.385C66.9222 353.385 66.2322 353.865 66.2322 354.63ZM66.0222 359.265C66.0222 360.165 66.7722 360.69 68.0322 360.69C69.2922 360.69 70.0422 360.165 70.0422 359.265C70.0422 358.365 69.2772 357.825 68.0322 357.825C66.7872 357.825 66.0222 358.365 66.0222 359.265Z" fill="black"/>
<path d="M104.081 104.78L101.195 95.16H103.392L104.653 99.333C104.822 99.905 104.978 100.477 105.134 101.426C105.29 100.477 105.446 99.931 105.615 99.333L106.798 95.16H109.151L110.282 99.333C110.438 99.918 110.594 100.503 110.763 101.426C110.958 100.451 111.101 99.918 111.27 99.359L112.557 95.16H114.702L111.764 104.78H109.71L107.955 98.462L106.148 104.78H104.081ZM117.63 104.949C115.667 104.949 114.263 103.519 114.263 101.517C114.263 99.489 115.628 98.072 117.591 98.072C119.632 98.072 120.906 99.411 120.906 101.53V102.037L116.187 102.063C116.304 102.921 116.785 103.324 117.669 103.324C118.423 103.324 118.956 103.051 119.099 102.583H120.932C120.698 104.026 119.411 104.949 117.63 104.949ZM117.604 99.697C116.811 99.697 116.369 100.048 116.213 100.828H118.917C118.917 100.139 118.41 99.697 117.604 99.697ZM124.822 104.949C122.95 104.949 121.741 103.623 121.741 101.569C121.741 99.502 122.976 98.072 124.952 98.072C125.758 98.072 126.525 98.397 126.902 98.878V94.978H128.904V104.78H127.019L126.915 103.948C126.564 104.546 125.758 104.949 124.822 104.949ZM125.303 103.116C126.239 103.116 126.889 102.466 126.889 101.491C126.889 100.516 126.239 99.866 125.303 99.866C124.354 99.866 123.756 100.529 123.756 101.491C123.756 102.453 124.354 103.116 125.303 103.116Z" fill="#262942" fill-opacity="0.5"/>
<path d="M114.256 145.855H111.736V143.68H116.581V154.78H114.256V145.855Z" fill="black"/>
<path d="M109.596 203.57C109.596 202.28 110.286 201.215 111.366 200.78C110.481 200.345 110.001 199.565 110.001 198.53C110.001 196.715 111.636 195.47 114.021 195.47C116.406 195.47 117.996 196.7 117.996 198.56C117.996 199.595 117.501 200.39 116.586 200.795C117.696 201.215 118.401 202.265 118.401 203.555C118.401 205.64 116.691 206.96 113.991 206.96C111.291 206.96 109.596 205.655 109.596 203.57ZM112.191 198.77C112.191 199.52 112.881 199.985 113.976 199.985C115.071 199.985 115.761 199.52 115.761 198.77C115.761 198.005 115.071 197.525 113.976 197.525C112.881 197.525 112.191 198.005 112.191 198.77ZM111.981 203.405C111.981 204.305 112.731 204.83 113.991 204.83C115.251 204.83 116.001 204.305 116.001 203.405C116.001 202.505 115.236 201.965 113.991 201.965C112.746 201.965 111.981 202.505 111.981 203.405Z" fill="black"/>
<path d="M110.244 250.715H107.724V248.54H112.569V259.64H110.244V250.715ZM118.086 259.82C115.701 259.82 114.111 258.29 114.111 255.995H116.511C116.511 257.045 117.126 257.675 118.146 257.675C119.241 257.675 119.916 256.97 119.916 255.8C119.916 254.66 119.286 253.985 118.191 253.985C117.441 253.985 116.766 254.375 116.496 254.915L114.276 254.495L115.671 248.54H121.701V250.79H117.411L116.976 252.41C117.456 252.125 118.071 251.975 118.746 251.975C120.906 251.975 122.406 253.4 122.406 255.65C122.406 258.14 120.651 259.82 118.086 259.82Z" fill="black"/>
<path d="M113.97 310.61L106.05 310.64V308.84L109.71 305.795C110.895 304.82 111.39 304.13 111.39 303.215C111.39 302.09 110.835 301.49 109.845 301.49C108.81 301.49 108.21 302.195 108.21 303.44H105.795C105.795 300.95 107.385 299.33 109.83 299.33C112.365 299.33 113.88 300.695 113.88 303.065C113.88 304.58 112.965 305.81 111.585 306.965L109.92 308.36H113.97V310.61ZM123.198 310.61L115.278 310.64V308.84L118.938 305.795C120.123 304.82 120.618 304.13 120.618 303.215C120.618 302.09 120.063 301.49 119.073 301.49C118.038 301.49 117.438 302.195 117.438 303.44H115.023C115.023 300.95 116.613 299.33 119.058 299.33C121.593 299.33 123.108 300.695 123.108 303.065C123.108 304.58 122.193 305.81 120.813 306.965L119.148 308.36H123.198V310.61Z" fill="black"/>
<path d="M113.86 362.61L105.94 362.64V360.84L109.6 357.795C110.785 356.82 111.28 356.13 111.28 355.215C111.28 354.09 110.725 353.49 109.735 353.49C108.7 353.49 108.1 354.195 108.1 355.44H105.685C105.685 352.95 107.275 351.33 109.72 351.33C112.255 351.33 113.77 352.695 113.77 355.065C113.77 356.58 112.855 357.81 111.475 358.965L109.81 360.36H113.86V362.61ZM121.472 359.655L119.297 362.64H116.522L119.057 359.235C118.907 359.265 118.757 359.28 118.607 359.28C116.327 359.28 114.767 357.705 114.767 355.425C114.767 352.995 116.552 351.345 119.012 351.345C121.502 351.345 123.317 353.115 123.317 355.44C123.317 356.805 122.822 357.81 121.472 359.655ZM120.827 355.41C120.827 354.27 120.092 353.49 119.012 353.49C117.962 353.49 117.227 354.27 117.227 355.41C117.227 356.55 117.947 357.315 119.012 357.315C120.107 357.315 120.827 356.55 120.827 355.41Z" fill="black"/>
<path d="M158.26 97.11V95.16H165.826V97.11H163.096V104.78H160.99V97.11H158.26ZM168.843 104.78H166.841V94.978H168.856V98.956C169.259 98.397 170 98.072 170.845 98.072C172.392 98.072 173.289 99.06 173.289 100.763V104.78H171.287V101.244C171.287 100.425 170.832 99.892 170.143 99.892C169.35 99.892 168.843 100.412 168.843 101.218V104.78ZM179.041 98.28H181.043V104.78H179.158L179.028 104.052C178.625 104.585 177.819 104.949 177.039 104.949C175.557 104.949 174.647 103.961 174.647 102.362V98.28H176.649V101.634C176.649 102.7 177.013 103.168 177.832 103.168C178.69 103.168 179.041 102.726 179.041 101.66V98.28Z" fill="#262942" fill-opacity="0.5"/>
<rect x="156" y="133.92" width="30" height="30" rx="15" fill="black"/>
<path d="M175.378 154.905L167.773 154.92V153.48L171.358 150.45C172.843 149.19 173.338 148.47 173.338 147.42C173.338 146.175 172.663 145.47 171.508 145.47C170.308 145.47 169.558 146.31 169.543 147.72H167.638C167.653 145.32 169.183 143.76 171.508 143.76C173.848 143.76 175.303 145.095 175.303 147.315C175.303 148.845 174.463 150 172.798 151.425L170.818 153.12H175.378V154.905Z" fill="white"/>
<path d="M173.431 204.075L171.256 207.06H168.481L171.016 203.655C170.866 203.685 170.716 203.7 170.566 203.7C168.286 203.7 166.726 202.125 166.726 199.845C166.726 197.415 168.511 195.765 170.971 195.765C173.461 195.765 175.276 197.535 175.276 199.86C175.276 201.225 174.781 202.23 173.431 204.075ZM172.786 199.83C172.786 198.69 172.051 197.91 170.971 197.91C169.921 197.91 169.186 198.69 169.186 199.83C169.186 200.97 169.906 201.735 170.971 201.735C172.066 201.735 172.786 200.97 172.786 199.83Z" fill="black"/>
<path d="M166.032 250.135H163.512V247.96H168.357V259.06H166.032V250.135ZM171.845 250.945L174.02 247.96H176.795L174.26 251.365C174.41 251.335 174.56 251.32 174.71 251.32C176.99 251.32 178.55 252.895 178.55 255.175C178.55 257.605 176.765 259.255 174.305 259.255C171.815 259.255 170 257.485 170 255.16C170 253.795 170.495 252.79 171.845 250.945ZM172.49 255.19C172.49 256.33 173.225 257.11 174.305 257.11C175.355 257.11 176.09 256.33 176.09 255.19C176.09 254.05 175.37 253.285 174.305 253.285C173.21 253.285 172.49 254.05 172.49 255.19Z" fill="black"/>
<path d="M170.733 312.03L162.813 312.06V310.26L166.473 307.215C167.658 306.24 168.153 305.55 168.153 304.635C168.153 303.51 167.598 302.91 166.608 302.91C165.573 302.91 164.973 303.615 164.973 304.86H162.558C162.558 302.37 164.148 300.75 166.593 300.75C169.128 300.75 170.643 302.115 170.643 304.485C170.643 306 169.728 307.23 168.348 308.385L166.683 309.78H170.733V312.03ZM175.267 306.84H173.647V305.28C173.677 305.25 173.707 305.235 173.737 305.205L176.152 303.09H171.967V300.96H179.197V302.895L176.857 304.95C178.357 305.4 179.572 306.6 179.572 308.49C179.572 310.83 177.682 312.255 175.432 312.255C173.272 312.255 171.457 310.935 171.457 308.43H173.857C173.857 309.525 174.517 310.11 175.492 310.11C176.437 310.11 177.082 309.465 177.082 308.475C177.082 307.59 176.572 306.84 175.267 306.84Z" fill="black"/>
<path d="M164.269 357.84H162.649V356.28C162.679 356.25 162.709 356.235 162.739 356.205L165.154 354.09H160.969V351.96H168.199V353.895L165.859 355.95C167.359 356.4 168.574 357.6 168.574 359.49C168.574 361.83 166.684 363.255 164.434 363.255C162.274 363.255 160.459 361.935 160.459 359.43H162.859C162.859 360.525 163.519 361.11 164.494 361.11C165.439 361.11 166.084 360.465 166.084 359.475C166.084 358.59 165.574 357.84 164.269 357.84ZM169.434 357.54C169.434 354.105 171.384 351.75 174.279 351.75C177.174 351.75 179.124 354.105 179.124 357.54C179.124 360.975 177.324 363.255 174.279 363.255C171.234 363.255 169.434 360.975 169.434 357.54ZM171.834 357.54C171.834 359.925 172.734 361.125 174.279 361.125C175.824 361.125 176.724 359.925 176.724 357.54C176.724 355.08 175.824 353.88 174.279 353.88C172.734 353.88 171.834 355.08 171.834 357.54Z" fill="black"/>
<path d="M220.487 101.023H217.107V104.78H215.001V95.16H221.124V97.11H217.107V99.125H220.487V101.023ZM226.399 98.28V100.165H225.762C224.618 100.165 223.929 100.672 223.929 101.959V104.78H221.927V98.293H223.812L223.916 99.255C224.189 98.618 224.761 98.189 225.632 98.189C225.866 98.189 226.126 98.215 226.399 98.28ZM228.399 97.266C227.762 97.266 227.255 96.759 227.255 96.122C227.255 95.485 227.762 94.991 228.399 94.991C229.023 94.991 229.53 95.485 229.53 96.122C229.53 96.759 229.023 97.266 228.399 97.266ZM227.411 104.78V98.28H229.413V104.78H227.411Z" fill="#262942" fill-opacity="0.5"/>
<rect x="206" y="134.64" width="30" height="30" rx="15" fill="black"/>
<path d="M215.373 197.855H212.853V195.68H217.698V206.78H215.373V197.855ZM219.431 201.26C219.431 197.825 221.381 195.47 224.276 195.47C227.171 195.47 229.121 197.825 229.121 201.26C229.121 204.695 227.321 206.975 224.276 206.975C221.231 206.975 219.431 204.695 219.431 201.26ZM221.831 201.26C221.831 203.645 222.731 204.845 224.276 204.845C225.821 204.845 226.721 203.645 226.721 201.26C226.721 198.8 225.821 197.6 224.276 197.6C222.731 197.6 221.831 198.8 221.831 201.26Z" fill="black"/>
<path d="M216.067 249.855H213.547V247.68H218.392V258.78H216.067V249.855ZM219.659 247.68H227.894V249.93L224.069 258.78H221.549L225.449 249.93H219.659V247.68Z" fill="black"/>
<path d="M219.655 310.75L211.735 310.78V308.98L215.395 305.935C216.58 304.96 217.075 304.27 217.075 303.355C217.075 302.23 216.52 301.63 215.53 301.63C214.495 301.63 213.895 302.335 213.895 303.58H211.48C211.48 301.09 213.07 299.47 215.515 299.47C218.05 299.47 219.565 300.835 219.565 303.205C219.565 304.72 218.65 305.95 217.27 307.105L215.605 308.5H219.655V310.75ZM229.592 308.815H228.227V310.78H225.932V308.815H220.412V306.685L225.197 299.68H228.227V306.685H229.592V308.815ZM222.992 306.685H225.932V302.365L222.992 306.685Z" fill="black"/>
<path d="M217.952 357.56H216.332V356C216.362 355.97 216.392 355.955 216.422 355.925L218.837 353.81H214.652V351.68H221.882V353.615L219.542 355.67C221.042 356.12 222.257 357.32 222.257 359.21C222.257 361.55 220.367 362.975 218.117 362.975C215.957 362.975 214.142 361.655 214.142 359.15H216.542C216.542 360.245 217.202 360.83 218.177 360.83C219.122 360.83 219.767 360.185 219.767 359.195C219.767 358.31 219.257 357.56 217.952 357.56ZM225.46 353.855H222.94V351.68H227.785V362.78H225.46V353.855Z" fill="black"/>
<path d="M221.115 150.21H219.78V148.965L222.6 146.37H218.04V144.675H225V146.205L222.33 148.665C224.01 148.995 225.315 150.225 225.315 152.16C225.315 154.41 223.56 155.835 221.34 155.835C219.195 155.835 217.53 154.515 217.53 152.145H219.42C219.42 153.405 220.2 154.125 221.37 154.125C222.57 154.125 223.365 153.345 223.365 152.13C223.365 151.02 222.645 150.21 221.115 150.21Z" fill="white"/>
<rect x="256" y="134.64" width="30" height="30" rx="15" fill="black"/>
<path d="M256.468 97.955C256.468 96.213 257.937 94.978 260.004 94.978C262.071 94.978 263.371 96.122 263.371 97.942H261.278C261.278 97.266 260.771 96.85 259.978 96.85C259.12 96.85 258.574 97.24 258.574 97.877C258.574 98.462 258.873 98.748 259.549 98.891L260.992 99.19C262.708 99.541 263.527 100.36 263.527 101.881C263.527 103.74 262.071 104.949 259.861 104.949C257.716 104.949 256.325 103.792 256.325 101.985H258.418C258.418 102.687 258.938 103.077 259.874 103.077C260.823 103.077 261.421 102.7 261.421 102.089C261.421 101.556 261.174 101.283 260.537 101.153L259.068 100.854C257.352 100.503 256.468 99.528 256.468 97.955ZM266.639 104.949C265.261 104.949 264.403 104.143 264.403 102.869C264.403 101.673 265.248 100.932 266.808 100.815L268.628 100.672V100.568C268.628 99.931 268.238 99.593 267.523 99.593C266.678 99.593 266.223 99.918 266.223 100.503H264.559C264.559 99.034 265.768 98.072 267.627 98.072C269.512 98.072 270.578 99.125 270.578 100.984V104.78H268.81L268.68 103.922C268.472 104.52 267.614 104.949 266.639 104.949ZM267.341 103.467C268.108 103.467 268.641 103.09 268.641 102.349V101.998L267.627 102.089C266.756 102.167 266.444 102.362 266.444 102.778C266.444 103.246 266.73 103.467 267.341 103.467ZM274.576 104.78H272.574V99.944H271.339V98.28H272.574V96.265H274.576V98.28H275.811V99.944H274.576V104.78Z" fill="#262942" fill-opacity="0.5"/>
<path d="M275.286 153.555H273.951V155.64H272.136V153.555H266.571V151.875L271.536 144.675H273.951V151.875H275.286V153.555ZM268.611 151.875H272.136V146.745L268.611 151.875Z" fill="white"/>
<path d="M263.129 198.715H260.609V196.54H265.454V207.64H263.129V198.715ZM269.384 198.715H266.864V196.54H271.709V207.64H269.384V198.715Z" fill="black"/>
<path d="M261.385 250.715H258.865V248.54H263.71V259.64H261.385V250.715ZM265.297 256.43C265.297 255.14 265.987 254.075 267.067 253.64C266.182 253.205 265.702 252.425 265.702 251.39C265.702 249.575 267.337 248.33 269.722 248.33C272.107 248.33 273.697 249.56 273.697 251.42C273.697 252.455 273.202 253.25 272.287 253.655C273.397 254.075 274.102 255.125 274.102 256.415C274.102 258.5 272.392 259.82 269.692 259.82C266.992 259.82 265.297 258.515 265.297 256.43ZM267.892 251.63C267.892 252.38 268.582 252.845 269.677 252.845C270.772 252.845 271.462 252.38 271.462 251.63C271.462 250.865 270.772 250.385 269.677 250.385C268.582 250.385 267.892 250.865 267.892 251.63ZM267.682 256.265C267.682 257.165 268.432 257.69 269.692 257.69C270.952 257.69 271.702 257.165 271.702 256.265C271.702 255.365 270.937 254.825 269.692 254.825C268.447 254.825 267.682 255.365 267.682 256.265Z" fill="black"/>
<path d="M266.072 311.61L258.152 311.64V309.84L261.812 306.795C262.997 305.82 263.492 305.13 263.492 304.215C263.492 303.09 262.937 302.49 261.947 302.49C260.912 302.49 260.312 303.195 260.312 304.44H257.897C257.897 301.95 259.487 300.33 261.932 300.33C264.467 300.33 265.982 301.695 265.982 304.065C265.982 305.58 265.067 306.81 263.687 307.965L262.022 309.36H266.072V311.61ZM270.853 311.82C268.468 311.82 266.878 310.29 266.878 307.995H269.278C269.278 309.045 269.893 309.675 270.913 309.675C272.008 309.675 272.683 308.97 272.683 307.8C272.683 306.66 272.053 305.985 270.958 305.985C270.208 305.985 269.533 306.375 269.263 306.915L267.043 306.495L268.438 300.54H274.468V302.79H270.178L269.743 304.41C270.223 304.125 270.838 303.975 271.513 303.975C273.673 303.975 275.173 305.4 275.173 307.65C275.173 310.14 273.418 311.82 270.853 311.82Z" fill="black"/>
<path d="M266.256 354.715H263.736V352.54H268.581V363.64H266.256V354.715Z" fill="#262942" fill-opacity="0.5"/>
<path d="M303.468 97.955C303.468 96.213 304.937 94.978 307.004 94.978C309.071 94.978 310.371 96.122 310.371 97.942H308.278C308.278 97.266 307.771 96.85 306.978 96.85C306.12 96.85 305.574 97.24 305.574 97.877C305.574 98.462 305.873 98.748 306.549 98.891L307.992 99.19C309.708 99.541 310.527 100.36 310.527 101.881C310.527 103.74 309.071 104.949 306.861 104.949C304.716 104.949 303.325 103.792 303.325 101.985H305.418C305.418 102.687 305.938 103.077 306.874 103.077C307.823 103.077 308.421 102.7 308.421 102.089C308.421 101.556 308.174 101.283 307.537 101.153L306.068 100.854C304.352 100.503 303.468 99.528 303.468 97.955ZM315.992 98.28H317.994V104.78H316.109L315.979 104.052C315.576 104.585 314.77 104.949 313.99 104.949C312.508 104.949 311.598 103.961 311.598 102.362V98.28H313.6V101.634C313.6 102.7 313.964 103.168 314.783 103.168C315.641 103.168 315.992 102.726 315.992 101.66V98.28ZM321.498 104.78H319.496V98.28H321.381L321.511 98.956C321.914 98.397 322.655 98.072 323.5 98.072C325.047 98.072 325.944 99.06 325.944 100.763V104.78H323.942V101.244C323.942 100.425 323.487 99.892 322.798 99.892C322.005 99.892 321.498 100.412 321.498 101.218V104.78Z" fill="#262942" fill-opacity="0.5"/>
<path d="M314.885 154.96C312.5 154.96 310.91 153.43 310.91 151.135H313.31C313.31 152.185 313.925 152.815 314.945 152.815C316.04 152.815 316.715 152.11 316.715 150.94C316.715 149.8 316.085 149.125 314.99 149.125C314.24 149.125 313.565 149.515 313.295 150.055L311.075 149.635L312.47 143.68H318.5V145.93H314.21L313.775 147.55C314.255 147.265 314.87 147.115 315.545 147.115C317.705 147.115 319.205 148.54 319.205 150.79C319.205 153.28 317.45 154.96 314.885 154.96Z" fill="black"/>
<path d="M309.215 197.855H306.695V195.68H311.54V206.78H309.215V197.855ZM321.358 206.75L313.438 206.78V204.98L317.098 201.935C318.283 200.96 318.778 200.27 318.778 199.355C318.778 198.23 318.223 197.63 317.233 197.63C316.198 197.63 315.598 198.335 315.598 199.58H313.183C313.183 197.09 314.773 195.47 317.218 195.47C319.753 195.47 321.268 196.835 321.268 199.205C321.268 200.72 320.353 201.95 318.973 203.105L317.308 204.5H321.358V206.75Z" fill="black"/>
<path d="M310.032 249.855H307.512V247.68H312.357V258.78H310.032V249.855ZM320.705 255.795L318.53 258.78H315.755L318.29 255.375C318.14 255.405 317.99 255.42 317.84 255.42C315.56 255.42 314 253.845 314 251.565C314 249.135 315.785 247.485 318.245 247.485C320.735 247.485 322.55 249.255 322.55 251.58C322.55 252.945 322.055 253.95 320.705 255.795ZM320.06 251.55C320.06 250.41 319.325 249.63 318.245 249.63C317.195 249.63 316.46 250.41 316.46 251.55C316.46 252.69 317.18 253.455 318.245 253.455C319.34 253.455 320.06 252.69 320.06 251.55Z" fill="black"/>
<path d="M313.86 310.75L305.94 310.78V308.98L309.6 305.935C310.785 304.96 311.28 304.27 311.28 303.355C311.28 302.23 310.725 301.63 309.735 301.63C308.7 301.63 308.1 302.335 308.1 303.58H305.685C305.685 301.09 307.275 299.47 309.72 299.47C312.255 299.47 313.77 300.835 313.77 303.205C313.77 304.72 312.855 305.95 311.475 307.105L309.81 308.5H313.86V310.75ZM316.612 302.665L318.787 299.68H321.562L319.027 303.085C319.177 303.055 319.327 303.04 319.477 303.04C321.757 303.04 323.317 304.615 323.317 306.895C323.317 309.325 321.532 310.975 319.072 310.975C316.582 310.975 314.767 309.205 314.767 306.88C314.767 305.515 315.262 304.51 316.612 302.665ZM317.257 306.91C317.257 308.05 317.992 308.83 319.072 308.83C320.122 308.83 320.857 308.05 320.857 306.91C320.857 305.77 320.137 305.005 319.072 305.005C317.977 305.005 317.257 305.77 317.257 306.91Z" fill="black"/>
<path d="M318.084 362.75L310.164 362.78V360.98L313.824 357.935C315.009 356.96 315.504 356.27 315.504 355.355C315.504 354.23 314.949 353.63 313.959 353.63C312.924 353.63 312.324 354.335 312.324 355.58H309.909C309.909 353.09 311.499 351.47 313.944 351.47C316.479 351.47 317.994 352.835 317.994 355.205C317.994 356.72 317.079 357.95 315.699 359.105L314.034 360.5H318.084V362.75Z" fill="#262942" fill-opacity="0.5"/>
<path d="M146.897 38V36.245L149.653 33.359C149.991 32.995 150.229 32.683 150.368 32.423C150.515 32.163 150.589 31.903 150.589 31.643C150.589 30.9843 150.169 30.655 149.328 30.655C148.981 30.655 148.626 30.72 148.262 30.85C147.907 30.98 147.551 31.1793 147.196 31.448L146.455 29.706C146.854 29.394 147.335 29.147 147.898 28.965C148.47 28.783 149.059 28.692 149.666 28.692C150.723 28.692 151.529 28.9217 152.084 29.381C152.647 29.8403 152.929 30.5033 152.929 31.37C152.929 31.9247 152.803 32.4577 152.552 32.969C152.301 33.4717 151.88 34.009 151.291 34.581L149.809 36.063H153.267V38H146.897ZM157.695 38.143C156.56 38.143 155.693 37.7313 155.095 36.908C154.497 36.076 154.198 34.9017 154.198 33.385C154.198 31.8597 154.497 30.6983 155.095 29.901C155.693 29.095 156.56 28.692 157.695 28.692C158.83 28.692 159.697 29.095 160.295 29.901C160.893 30.6983 161.192 31.8553 161.192 33.372C161.192 34.8973 160.893 36.076 160.295 36.908C159.697 37.7313 158.83 38.143 157.695 38.143ZM157.695 36.245C158.111 36.245 158.419 36.0197 158.618 35.569C158.826 35.1097 158.93 34.3773 158.93 33.372C158.93 32.3753 158.826 31.6647 158.618 31.24C158.419 30.8067 158.111 30.59 157.695 30.59C157.279 30.59 156.967 30.8067 156.759 31.24C156.56 31.6647 156.46 32.3753 156.46 33.372C156.46 34.3773 156.56 35.1097 156.759 35.569C156.967 36.0197 157.279 36.245 157.695 36.245ZM162.487 38V36.245L165.243 33.359C165.581 32.995 165.819 32.683 165.958 32.423C166.105 32.163 166.179 31.903 166.179 31.643C166.179 30.9843 165.759 30.655 164.918 30.655C164.571 30.655 164.216 30.72 163.852 30.85C163.497 30.98 163.141 31.1793 162.786 31.448L162.045 29.706C162.444 29.394 162.925 29.147 163.488 28.965C164.06 28.783 164.649 28.692 165.256 28.692C166.313 28.692 167.119 28.9217 167.674 29.381C168.237 29.8403 168.519 30.5033 168.519 31.37C168.519 31.9247 168.393 32.4577 168.142 32.969C167.891 33.4717 167.47 34.009 166.881 34.581L165.399 36.063H168.857V38H162.487ZM173.012 38.143C172.362 38.143 171.738 38.0563 171.14 37.883C170.542 37.701 170.065 37.4627 169.71 37.168L170.438 35.387C171.192 35.9157 172.019 36.18 172.921 36.18C173.857 36.18 174.325 35.8593 174.325 35.218C174.325 34.6287 173.909 34.334 173.077 34.334H171.478V32.436H172.843C173.215 32.436 173.506 32.358 173.714 32.202C173.93 32.046 174.039 31.8207 174.039 31.526C174.039 30.9453 173.636 30.655 172.83 30.655C172.006 30.655 171.261 30.9193 170.594 31.448L169.853 29.706C170.243 29.3853 170.719 29.1383 171.283 28.965C171.855 28.783 172.448 28.692 173.064 28.692C174.086 28.692 174.884 28.9173 175.456 29.368C176.028 29.81 176.314 30.4253 176.314 31.214C176.314 31.682 176.197 32.0937 175.963 32.449C175.729 32.8043 175.404 33.0643 174.988 33.229C175.499 33.3763 175.893 33.645 176.171 34.035C176.457 34.425 176.6 34.8973 176.6 35.452C176.6 36.284 176.279 36.9427 175.638 37.428C175.005 37.9047 174.13 38.143 173.012 38.143Z" fill="#262942" fill-opacity="0.5"/>
<path d="M114.34 16H108.54V1.2H114.14C118.48 1.2 121.5 4.24 121.5 8.64C121.5 12.96 118.56 16 114.34 16ZM113.82 4.2H111.78V13H114.02C116.58 13 118.08 11.38 118.08 8.64C118.08 5.84 116.5 4.2 113.82 4.2ZM128.015 16.26C124.995 16.26 122.835 14.06 122.835 10.98C122.835 7.86 124.935 5.68 127.955 5.68C131.095 5.68 133.055 7.74 133.055 11V11.78L125.795 11.82C125.975 13.14 126.715 13.76 128.075 13.76C129.235 13.76 130.055 13.34 130.275 12.62H133.095C132.735 14.84 130.755 16.26 128.015 16.26ZM127.975 8.18C126.755 8.18 126.075 8.72 125.835 9.92H129.995C129.995 8.86 129.215 8.18 127.975 8.18ZM134.339 10.96C134.339 7.88 136.459 5.68 139.459 5.68C142.419 5.68 144.379 7.3 144.579 9.92H141.479C141.259 8.92 140.639 8.44 139.579 8.44C138.279 8.44 137.439 9.42 137.439 10.96C137.439 12.56 138.219 13.5 139.539 13.5C140.619 13.5 141.279 13 141.479 12.02H144.579C144.379 14.54 142.339 16.26 139.539 16.26C136.379 16.26 134.339 14.16 134.339 10.96ZM150.905 16.26C147.885 16.26 145.725 14.06 145.725 10.98C145.725 7.86 147.825 5.68 150.845 5.68C153.985 5.68 155.945 7.74 155.945 11V11.78L148.685 11.82C148.865 13.14 149.605 13.76 150.965 13.76C152.125 13.76 152.945 13.34 153.165 12.62H155.985C155.625 14.84 153.645 16.26 150.905 16.26ZM150.865 8.18C149.645 8.18 148.965 8.72 148.725 9.92H152.885C152.885 8.86 152.105 8.18 150.865 8.18ZM160.849 16H157.769V6H160.649L160.849 7.04C161.349 6.34 162.329 5.68 163.769 5.68C165.269 5.68 166.229 6.38 166.809 7.44C167.329 6.38 168.509 5.68 169.949 5.68C172.529 5.68 173.809 7.18 173.809 9.46V16H170.729V10.32C170.729 9.06 170.069 8.46 169.089 8.46C168.209 8.46 167.329 8.94 167.329 10.64V16H164.249V10.32C164.249 9.08 163.609 8.48 162.629 8.48C161.749 8.48 160.849 8.96 160.849 10.64V16ZM178.912 16H176.012V0.92H179.092V7.16C179.692 6.26 181.012 5.66 182.452 5.66C185.252 5.66 187.032 7.84 187.032 11.1C187.032 14.2 185.052 16.26 182.212 16.26C180.812 16.26 179.612 15.64 179.072 14.72L178.912 16ZM179.112 10.94C179.112 12.44 180.112 13.44 181.552 13.44C183.012 13.44 183.932 12.42 183.932 10.94C183.932 9.46 183.012 8.44 181.552 8.44C180.112 8.44 179.112 9.44 179.112 10.94ZM193.445 16.26C190.425 16.26 188.265 14.06 188.265 10.98C188.265 7.86 190.365 5.68 193.385 5.68C196.525 5.68 198.485 7.74 198.485 11V11.78L191.225 11.82C191.405 13.14 192.145 13.76 193.505 13.76C194.665 13.76 195.485 13.34 195.705 12.62H198.525C198.165 14.84 196.185 16.26 193.445 16.26ZM193.405 8.18C192.185 8.18 191.505 8.72 191.265 9.92H195.425C195.425 8.86 194.645 8.18 193.405 8.18ZM207.188 6V8.9H206.208C204.448 8.9 203.388 9.68 203.388 11.66V16H200.308V6.02H203.208L203.368 7.5C203.788 6.52 204.668 5.86 206.008 5.86C206.368 5.86 206.768 5.9 207.188 6Z" fill="#1E1E1E"/>
</svg>
