<svg width="120" height="20" viewBox="0 0 120 20" fill="none" xmlns="http://www.w3.org/2000/svg">
<path d="M13.9861 7.52635C13.9861 11.9536 11.0883 15.0527 6.96288 15.0527C2.8576 15.0527 0 11.9536 0 7.52635C0 3.11921 2.87772 0 6.98301 0C11.1084 0 13.9861 3.09909 13.9861 7.52635ZM11.9134 7.52635C11.9134 4.14553 9.94123 1.91177 6.98301 1.91177C4.02479 1.91177 2.07277 4.14553 2.07277 7.52635C2.07277 10.9072 4.02479 13.1611 6.98301 13.1611C9.94123 13.1611 11.9134 10.8871 11.9134 7.52635Z" fill="#1CDA2F"/>
<path d="M16.1866 19.2184V4.97061H17.8971L18.038 6.74152C18.7021 5.39322 20.0302 4.68888 21.5999 4.68888C24.4173 4.68888 26.168 6.80189 26.168 9.82048C26.168 12.819 24.5179 15.0728 21.5999 15.0728C20.0302 15.0728 18.7222 14.4087 18.0782 13.2013V19.2184H16.1866ZM18.0983 9.90098C18.0983 11.9134 19.2655 13.3623 21.1974 13.3623C23.1293 13.3623 24.2764 11.9134 24.2764 9.90098C24.2764 7.86846 23.1293 6.41954 21.1974 6.41954C19.2655 6.41954 18.0983 7.84834 18.0983 9.90098Z" fill="#1CDA2F"/>
<path d="M32.4992 15.0527C29.6014 15.0527 27.6091 12.9598 27.6091 9.90098C27.6091 6.82202 29.5611 4.68888 32.4187 4.68888C35.216 4.68888 37.0472 6.62078 37.0472 9.53875V10.2431L29.4404 10.2632C29.5812 12.336 30.6679 13.483 32.5395 13.483C34.0085 13.483 34.9745 12.8793 35.2964 11.7524H37.0674C36.5844 13.8654 34.9342 15.0527 32.4992 15.0527ZM32.4187 6.27867C30.7686 6.27867 29.7221 7.26474 29.4806 8.9954H35.1556C35.1556 7.36536 34.089 6.27867 32.4187 6.27867Z" fill="#1CDA2F"/>
<path d="M41.0517 14.8112H39.1601V4.97061H40.8706L41.0719 6.47991C41.6957 5.35297 42.9434 4.68888 44.3319 4.68888C46.9279 4.68888 48.1152 6.27867 48.1152 8.79416V14.8112H46.2236V9.21677C46.2236 7.2245 45.2979 6.41954 43.849 6.41954C42.0781 6.41954 41.0517 7.68735 41.0517 9.59912V14.8112Z" fill="#1CDA2F"/>
<path d="M60.6334 15.0326C56.6086 15.0326 53.8718 12.0341 53.8718 7.60685C53.8718 3.17958 56.6489 0.160992 60.7139 0.160992C63.813 0.160992 66.248 2.03252 66.8316 4.89012H65.2821C64.6783 2.81735 62.9074 1.54954 60.6536 1.54954C57.4941 1.54954 55.3811 3.96442 55.3811 7.60685C55.3811 11.2292 57.4941 13.644 60.6536 13.644C62.9276 13.644 64.7387 12.4165 65.3626 10.4846H66.9121C66.248 13.2013 63.7325 15.0326 60.6334 15.0326Z" fill="#1E1E1E" fill-opacity="0.68"/>
<path d="M69.8002 2.39475C69.2367 2.39475 68.7739 1.9319 68.7739 1.36843C68.7739 0.804958 69.2367 0.321984 69.8002 0.321984C70.3637 0.321984 70.8466 0.804958 70.8466 1.36843C70.8466 1.9319 70.3637 2.39475 69.8002 2.39475ZM69.116 14.8112V5.07123H70.5045V14.8112H69.116Z" fill="#1E1E1E" fill-opacity="0.68"/>
<path d="M74.7887 14.8112H73.4002V5.07123H74.6076L74.8089 6.76164C75.4528 5.51396 76.7408 4.80962 78.1494 4.80962C80.8259 4.80962 81.9327 6.39941 81.9327 8.85453V14.8112H80.5442V9.15639C80.5442 6.88239 79.5179 6.07743 77.9079 6.07743C75.9157 6.07743 74.7887 7.52635 74.7887 9.71986V14.8112Z" fill="#1E1E1E" fill-opacity="0.68"/>
<path d="M88.7854 15.0527C85.9278 15.0527 84.016 13.0001 84.016 9.94123C84.016 6.90251 85.9077 4.80962 88.6848 4.80962C91.321 4.80962 93.1121 6.68115 93.1121 9.43813V10.1223H85.3643C85.465 12.497 86.7126 13.8654 88.8055 13.8654C90.3953 13.8654 91.4216 13.1812 91.7839 11.8932H93.1121C92.5888 13.9459 91.0795 15.0527 88.7854 15.0527ZM88.6848 5.99693C86.8535 5.99693 85.6461 7.20437 85.4046 9.11615H91.7235C91.7235 7.24462 90.5161 5.99693 88.6848 5.99693Z" fill="#1E1E1E" fill-opacity="0.68"/>
<path d="M96.7207 14.8112H95.3321V5.07123H96.5396L96.7006 6.45979C97.1835 5.43346 98.2702 4.80962 99.6387 4.80962C101.168 4.80962 102.315 5.61458 102.778 6.88239C103.221 5.61458 104.408 4.80962 105.978 4.80962C108.091 4.80962 109.479 6.17805 109.479 8.43193V14.8112H108.131V8.71367C108.131 7.04338 107.205 6.05731 105.716 6.05731C104.086 6.05731 103.12 7.28487 103.12 8.79416V14.8112H101.752V8.69354C101.752 7.04338 100.806 6.07743 99.3368 6.07743C97.7067 6.07743 96.7207 7.28487 96.7207 8.77404V14.8112Z" fill="#1E1E1E" fill-opacity="0.68"/>
<path d="M115.07 15.0527C112.997 15.0527 111.769 13.8855 111.769 12.175C111.769 10.384 113.138 9.25701 115.412 9.0759L118.632 8.81429V8.4923C118.632 6.58053 117.485 5.97681 116.056 5.97681C114.365 5.97681 113.359 6.74152 113.359 8.04958H112.091C112.091 6.07743 113.701 4.80962 116.096 4.80962C118.35 4.80962 120 5.93656 120 8.51243V14.8112H118.833L118.652 13.1007C118.048 14.3282 116.72 15.0527 115.07 15.0527ZM115.392 13.9258C117.444 13.9258 118.632 12.497 118.632 10.384V9.86073L115.754 10.0821C113.923 10.2431 113.178 11.048 113.178 12.1347C113.178 13.322 114.063 13.9258 115.392 13.9258Z" fill="#1E1E1E" fill-opacity="0.68"/>
</svg>
