<svg width="100" height="100" viewBox="0 0 100 100" fill="none" xmlns="http://www.w3.org/2000/svg">
<path d="M16.4417 42.6687H4.11038C3.69627 42.6687 3.34351 43.0215 3.34351 43.4509V44.8466C3.34351 45.2761 3.69627 45.6288 4.11038 45.6288H16.4417C16.8711 45.6288 17.2085 45.2761 17.2239 44.8466V43.4662C17.2239 43.0215 16.8711 42.6687 16.4417 42.6687ZM16.4417 50.4141H4.11038C3.91099 50.4141 3.7116 50.4908 3.57357 50.6442C3.42019 50.7975 3.34351 50.9816 3.34351 51.1963V52.592C3.34351 53.0215 3.69627 53.3742 4.11038 53.3742H16.4417C16.8711 53.3742 17.2085 53.0368 17.2239 52.592V51.1963C17.2085 50.7515 16.8711 50.4141 16.4417 50.4141ZM11.0582 54.2791H4.11038C3.91099 54.2791 3.7116 54.3558 3.57357 54.5092C3.43553 54.6626 3.34351 54.8466 3.34351 55.0613V56.457C3.34351 56.8865 3.69627 57.2393 4.11038 57.2393H11.0429C11.4723 57.2393 11.8098 56.8865 11.8098 56.4724V55.0767C11.8251 54.6166 11.4877 54.2638 11.0582 54.2791ZM17.2239 46.5337H4.11038C3.91099 46.5337 3.7116 46.6104 3.57357 46.7638C3.43553 46.9172 3.34351 47.1012 3.34351 47.3159V48.7116C3.34351 49.1411 3.69627 49.4939 4.11038 49.4939H17.2085C17.638 49.4939 17.9754 49.1411 17.9754 48.7116V47.3159C17.9907 46.8865 17.638 46.5491 17.2239 46.5337Z" fill="#00C3F7"/>
<path d="M31.5644 45.7976C31.181 45.3988 30.7362 45.092 30.23 44.8773C29.7239 44.6626 29.1871 44.5552 28.6349 44.5552C28.0981 44.5399 27.5767 44.6626 27.0859 44.8927C26.7638 45.046 26.4724 45.2608 26.227 45.5215V45.2761C26.227 45.1534 26.181 45.0307 26.1043 44.9387C26.0276 44.8466 25.9049 44.7853 25.7668 44.7853H24.0644C23.9417 44.7853 23.819 44.8313 23.7423 44.9387C23.6503 45.0307 23.6043 45.1534 23.6196 45.2761V56.7485C23.6196 56.8712 23.6656 56.9939 23.7423 57.0859C23.8343 57.1779 23.9417 57.2239 24.0644 57.2239H25.8129C25.9356 57.2239 26.0429 57.1779 26.1349 57.0859C26.227 57.0092 26.2883 56.8865 26.273 56.7485V52.8221C26.5184 53.0982 26.8405 53.2976 27.1932 53.4203C27.6533 53.589 28.1288 53.681 28.6196 53.681C29.1718 53.681 29.7239 53.5736 30.23 53.3589C30.7362 53.1442 31.1963 52.8374 31.5797 52.4387C31.9785 52.0246 32.2852 51.5338 32.5 50.9969C32.7454 50.3988 32.8527 49.7546 32.8374 49.1104C32.8527 48.4663 32.73 47.8221 32.5 47.2086C32.2699 46.7025 31.9632 46.2117 31.5644 45.7976ZM30 49.954C29.9079 50.1994 29.7699 50.4141 29.5859 50.6135C29.2331 50.9969 28.727 51.2117 28.2055 51.2117C27.9448 51.2117 27.684 51.1657 27.4386 51.043C27.2086 50.9356 26.9938 50.7976 26.8098 50.6135C26.6257 50.4295 26.4877 50.1994 26.3957 49.954C26.1963 49.4325 26.1963 48.865 26.3957 48.3436C26.4877 48.0982 26.6411 47.8835 26.8098 47.6994C26.9938 47.5154 27.2086 47.362 27.4386 47.2546C27.684 47.1473 27.9448 47.0859 28.2055 47.0859C28.4816 47.0859 28.727 47.1319 28.9877 47.2546C29.2178 47.362 29.4325 47.5 29.6012 47.6841C29.7852 47.8681 29.9079 48.0828 30.0153 48.3282C30.1994 48.865 30.184 49.4325 30 49.954ZM42.2086 44.8006H40.4754C40.3527 44.8006 40.23 44.8466 40.1533 44.9387C40.0613 45.0307 40.0153 45.1534 40.0153 45.2914V45.5061C39.8006 45.2454 39.5245 45.046 39.2331 44.908C38.7576 44.6779 38.2362 44.5706 37.7147 44.5706C36.5951 44.5706 35.5368 45.0154 34.7392 45.7976C34.3251 46.2117 34.003 46.7025 33.7883 47.2393C33.5429 47.8374 33.4202 48.4816 33.4356 49.1411C33.4202 49.7853 33.5429 50.4295 33.7883 51.043C34.0184 51.5798 34.3251 52.0706 34.7392 52.4847C35.5214 53.2822 36.5951 53.727 37.6994 53.727C38.2208 53.7423 38.7423 53.6196 39.2178 53.3896C39.5092 53.2362 39.8006 53.0368 40.0153 52.7914V53.0215C40.0153 53.1442 40.0613 53.2669 40.1533 53.3589C40.2454 53.4356 40.3527 53.4969 40.4754 53.4969H42.2086C42.3313 53.4969 42.454 53.4509 42.5306 53.3589C42.6227 53.2669 42.6687 53.1442 42.6687 53.0215V45.3068C42.6687 45.1841 42.6227 45.0614 42.546 44.9693C42.454 44.862 42.3313 44.8006 42.2086 44.8006ZM39.8619 49.954C39.7699 50.1994 39.6319 50.4141 39.4478 50.6135C39.2638 50.7976 39.0644 50.9509 38.8343 51.0583C38.3435 51.2884 37.776 51.2884 37.2852 51.0583C37.0552 50.9509 36.8405 50.7976 36.6564 50.6135C36.4724 50.4295 36.3343 50.1994 36.2423 49.954C36.0583 49.4325 36.0583 48.865 36.2423 48.3436C36.3343 48.0982 36.4724 47.8988 36.6564 47.6994C36.8405 47.5154 37.0399 47.362 37.2852 47.2546C37.776 47.0246 38.3435 47.0246 38.819 47.2546C39.0491 47.362 39.2638 47.5 39.4325 47.6841C39.6012 47.8681 39.7392 48.0828 39.8466 48.3282C40.0613 48.865 40.0613 49.4325 39.8619 49.954ZM59.4785 48.9111C59.2331 48.6963 58.9417 48.5123 58.6349 48.3896C58.3129 48.2515 57.9601 48.1595 57.6227 48.0828L56.3037 47.8221C55.9662 47.7607 55.7208 47.6687 55.5981 47.5614C55.4908 47.4847 55.4141 47.362 55.4141 47.2239C55.4141 47.0859 55.4908 46.9632 55.6595 46.8558C55.8895 46.7331 56.1349 46.6718 56.3957 46.6871C56.7331 46.6871 57.0705 46.7638 57.3773 46.8865C57.684 47.0246 57.9754 47.1626 58.2515 47.3466C58.6349 47.592 58.9724 47.546 59.2024 47.27L59.8313 46.5491C59.954 46.4264 60.0153 46.273 60.0306 46.1043C60.0153 45.9203 59.9233 45.7669 59.7852 45.6442C59.5245 45.4141 59.0951 45.1687 58.5276 44.9233C57.9601 44.6779 57.2392 44.5552 56.3957 44.5552C55.8742 44.5399 55.3681 44.6166 54.8773 44.77C54.4632 44.908 54.0644 45.1074 53.7116 45.3681C53.3895 45.6135 53.1441 45.9203 52.9601 46.2884C52.7914 46.6411 52.6994 47.0246 52.6994 47.408C52.6994 48.1288 52.9141 48.7117 53.3435 49.1411C53.773 49.5706 54.3405 49.862 55.046 50L56.4264 50.3068C56.7178 50.3528 57.0245 50.4448 57.3006 50.5828C57.454 50.6442 57.546 50.7976 57.546 50.9663C57.546 51.1196 57.4693 51.2577 57.3006 51.3804C57.1319 51.5031 56.8558 51.5798 56.4877 51.5798C56.1196 51.5798 55.7362 51.5031 55.3987 51.3344C55.0767 51.181 54.7852 50.9816 54.5092 50.7515C54.3865 50.6595 54.2638 50.5828 54.1104 50.5215C53.957 50.4755 53.7576 50.5215 53.5583 50.6902L52.8067 51.2577C52.592 51.4111 52.4846 51.6718 52.546 51.9172C52.592 52.1779 52.7914 52.4233 53.1748 52.7147C54.1257 53.3589 55.2607 53.6963 56.411 53.6657C56.9478 53.6657 57.4846 53.6043 57.9908 53.4509C58.4356 53.3129 58.8497 53.1135 59.2178 52.8374C59.5552 52.592 59.8313 52.27 60.0153 51.8865C60.1994 51.5184 60.2914 51.1196 60.2914 50.7055C60.3067 50.3374 60.23 49.9693 60.0767 49.6319C59.9233 49.3865 59.7239 49.1258 59.4785 48.9111ZM67.0552 51.0123C66.9785 50.8742 66.8405 50.7822 66.6718 50.7515C66.5184 50.7515 66.3497 50.7976 66.227 50.8896C66.0122 51.0276 65.7668 51.1043 65.5214 51.1196C65.4448 51.1196 65.3527 51.1043 65.276 51.089C65.184 51.0736 65.1073 51.0276 65.046 50.9663C64.9693 50.8896 64.9079 50.7976 64.8619 50.7055C64.8006 50.5522 64.7699 50.3988 64.7852 50.2454V47.1012H67.0245C67.1625 47.1012 67.2852 47.0399 67.3773 46.9479C67.4693 46.8558 67.5306 46.7485 67.5306 46.6104V45.2761C67.5306 45.1381 67.4846 45.0154 67.3773 44.9387C67.2852 44.8466 67.1625 44.8006 67.0398 44.8006H64.7852V42.6534C64.7852 42.5307 64.7392 42.3927 64.6472 42.316C64.5552 42.2393 64.4478 42.1933 64.3251 42.1779H62.5767C62.454 42.1779 62.3313 42.2239 62.2392 42.316C62.1472 42.408 62.0859 42.5307 62.0859 42.6534V44.8006H61.0889C60.9662 44.8006 60.8435 44.8466 60.7515 44.954C60.6748 45.046 60.6288 45.1687 60.6288 45.2914V46.6258C60.6288 46.7485 60.6748 46.8712 60.7515 46.9632C60.8282 47.0706 60.9509 47.1166 61.0889 47.1166H62.0859V50.8589C62.0705 51.3037 62.1625 51.7485 62.3466 52.1473C62.5153 52.4847 62.73 52.7761 63.0214 53.0215C63.2975 53.2515 63.6196 53.4203 63.9724 53.5123C64.3251 53.6196 64.6932 53.681 65.0613 53.681C65.5368 53.681 66.0276 53.6043 66.4877 53.4509C66.9171 53.3129 67.3006 53.0675 67.6073 52.7454C67.8067 52.546 67.8221 52.2239 67.6687 51.9939L67.0552 51.0123ZM76.5337 44.8006H74.8006C74.6779 44.8006 74.5705 44.8466 74.4785 44.9387C74.3865 45.0307 74.3405 45.1534 74.3405 45.2914V45.5061C74.1257 45.2454 73.865 45.046 73.5583 44.908C73.0828 44.6779 72.5613 44.5706 72.0399 44.5706C70.9202 44.5706 69.8619 45.0154 69.0644 45.7976C68.6503 46.2117 68.3282 46.7025 68.1135 47.2393C67.8681 47.8374 67.7454 48.4816 67.7607 49.1258C67.7454 49.77 67.8681 50.4141 68.1135 51.0276C68.3282 51.5644 68.6656 52.0552 69.0644 52.4693C69.8466 53.2669 70.9049 53.7117 72.0245 53.7117C72.546 53.727 73.0675 53.6043 73.5429 53.3896C73.8497 53.2362 74.1257 53.0368 74.3405 52.7914V53.0215C74.3405 53.1442 74.3865 53.2669 74.4785 53.3436C74.5705 53.4356 74.6779 53.4816 74.8006 53.4816H76.5337C76.7944 53.4816 76.9938 53.2822 76.9938 53.0215V45.3068C76.9938 45.1841 76.9478 45.0614 76.8711 44.9693C76.7945 44.862 76.6717 44.8006 76.5337 44.8006ZM74.2024 49.954C74.1104 50.1994 73.9724 50.4141 73.7883 50.6135C73.6043 50.7976 73.4049 50.9509 73.1748 51.0583C72.9294 51.1657 72.6687 51.227 72.3926 51.227C72.1165 51.227 71.8711 51.1657 71.6257 51.0583C71.3957 50.9509 71.181 50.7976 70.9969 50.6135C70.8129 50.4295 70.6748 50.1994 70.5981 49.954C70.4141 49.4325 70.4141 48.865 70.5981 48.3436C70.6902 48.0982 70.8282 47.8835 70.9969 47.6994C71.181 47.5154 71.3957 47.362 71.6257 47.2546C71.8711 47.1473 72.1319 47.0859 72.3926 47.0859C72.6533 47.0859 72.9141 47.1319 73.1748 47.2546C73.4049 47.362 73.6043 47.5 73.7883 47.6841C73.9724 47.8681 74.1104 48.0828 74.2024 48.3282C74.4018 48.8497 74.4018 49.4325 74.2024 49.954ZM86.0429 50.8896L85.046 50.1227C84.8619 49.9693 84.6779 49.9233 84.5245 49.9847C84.3865 50.046 84.2638 50.1381 84.1564 50.2454C83.9417 50.5062 83.681 50.7362 83.4049 50.9356C83.0981 51.1043 82.776 51.1963 82.4386 51.1657C82.0398 51.1657 81.6717 51.0583 81.3497 50.8282C81.0276 50.5982 80.7822 50.2914 80.6595 49.908C80.5675 49.6473 80.5214 49.3865 80.5214 49.1258C80.5214 48.8497 80.5675 48.589 80.6595 48.3129C80.7515 48.0675 80.8742 47.8528 81.0583 47.6687C81.2423 47.4847 81.4417 47.3313 81.6717 47.2393C81.9171 47.1319 82.1779 47.0706 82.454 47.0706C82.7914 47.0552 83.1288 47.1473 83.4202 47.316C83.7116 47.5 83.957 47.7301 84.1717 48.0061C84.2638 48.1135 84.3865 48.2055 84.5245 48.2669C84.6779 48.3282 84.8619 48.2822 85.046 48.1288L86.0429 47.3773C86.1656 47.3006 86.2576 47.1779 86.3037 47.0399C86.365 46.8865 86.3497 46.7178 86.2576 46.5798C85.8742 45.9816 85.3527 45.4908 84.7239 45.1381C84.0644 44.77 83.2822 44.5706 82.4079 44.5706C81.7944 44.5706 81.181 44.6933 80.5981 44.9233C80.046 45.1534 79.5552 45.4755 79.1411 45.8896C78.727 46.3037 78.3895 46.7945 78.1595 47.3466C77.684 48.4969 77.684 49.7853 78.1595 50.9356C78.3895 51.4724 78.7116 51.9785 79.1411 52.3773C80.0153 53.2362 81.181 53.6963 82.4079 53.6963C83.2822 53.6963 84.0644 53.4969 84.7239 53.1288C85.3527 52.7761 85.8895 52.2853 86.273 51.6718C86.3497 51.5338 86.365 51.365 86.319 51.227C86.2576 51.1043 86.1656 50.9816 86.0429 50.8896ZM95.276 52.6841L92.5306 48.6657L94.8773 45.5675C94.9846 45.4295 95.0306 45.2301 94.9693 45.0614C94.9233 44.9387 94.8159 44.816 94.5245 44.816H92.6687C92.5613 44.816 92.454 44.8466 92.3619 44.8927C92.2392 44.954 92.1472 45.046 92.0859 45.1534L90.2147 47.7761H89.7699V41.5798C89.7699 41.4571 89.7239 41.3344 89.6319 41.2423C89.5398 41.1503 89.4325 41.1043 89.3098 41.1043H87.5767C87.454 41.1043 87.3313 41.1503 87.2392 41.2423C87.1472 41.3344 87.1012 41.4417 87.1012 41.5798V53.0062C87.1012 53.1442 87.1472 53.2515 87.2392 53.3436C87.3313 53.4356 87.454 53.4816 87.5767 53.4816H89.3098C89.4325 53.4816 89.5552 53.4356 89.6319 53.3436C89.7239 53.2515 89.7699 53.1288 89.7699 53.0062V49.9847H90.2607L92.3006 53.1135C92.4233 53.3436 92.6533 53.4816 92.8987 53.4816H94.8466C95.138 53.4816 95.2607 53.3436 95.3221 53.2209C95.3987 53.0368 95.3834 52.8374 95.276 52.6841ZM52.0552 44.8006H50.1073C49.954 44.8006 49.8159 44.8466 49.7086 44.954C49.6165 45.046 49.5552 45.1534 49.5245 45.2761L48.0828 50.6135H47.73L46.1963 45.2761C46.1656 45.1687 46.1196 45.0614 46.0429 44.954C45.9509 44.8466 45.8282 44.7853 45.6902 44.7853H43.7116C43.4509 44.7853 43.2975 44.862 43.2208 45.046C43.1748 45.1994 43.1748 45.3681 43.2208 45.5215L45.6748 53.0368C45.7208 53.1442 45.7668 53.2669 45.8589 53.3436C45.9509 53.4356 46.0889 53.4816 46.227 53.4816H47.2699L47.1779 53.727L46.9478 54.4172C46.8711 54.6319 46.7484 54.816 46.5644 54.954C46.3957 55.0767 46.1963 55.1534 45.9816 55.1381C45.7975 55.1381 45.6288 55.092 45.4601 55.0307C45.2914 54.954 45.138 54.862 45 54.7546C44.8773 54.6626 44.7239 54.6166 44.5552 54.6166H44.5398C44.3558 54.6319 44.1871 54.7239 44.0951 54.8927L43.4816 55.7976C43.2362 56.1963 43.3742 56.4417 43.5276 56.5798C43.865 56.8865 44.2484 57.1166 44.6779 57.2546C45.1533 57.4233 45.6441 57.5 46.1349 57.5C47.0245 57.5 47.7607 57.2546 48.3282 56.7792C48.911 56.2577 49.3558 55.5828 49.5705 54.816L52.4233 45.5215C52.4846 45.3528 52.5 45.1841 52.4386 45.0307C52.4233 44.9233 52.3159 44.8006 52.0552 44.8006Z" fill="white"/>
</svg>
