<svg width="35" height="35" viewBox="0 0 35 35" fill="none" xmlns="http://www.w3.org/2000/svg">
<path d="M20.2484 13.9888V12.6314C21.0318 12.235 21.8708 11.9378 22.7654 11.7396C23.6601 11.5414 24.5785 11.4423 25.5208 11.4423C26.0593 11.4423 26.5763 11.4769 27.0717 11.5461C27.5672 11.6152 28.0785 11.7134 28.6058 11.8405V13.1643C28.0972 13.0016 27.6013 12.889 27.118 12.8263C26.6347 12.7637 26.1023 12.7324 25.5208 12.7324C24.5785 12.7324 23.6587 12.8385 22.7612 13.0507C21.8638 13.2629 21.0262 13.5756 20.2484 13.9888ZM20.2484 21.9535V20.5401C20.9944 20.1437 21.8287 19.8464 22.7514 19.6482C23.6741 19.45 24.5972 19.3509 25.5208 19.3509C26.0593 19.3509 26.5763 19.3855 27.0717 19.4547C27.5672 19.5239 28.0785 19.622 28.6058 19.7492V21.0729C28.0972 20.9103 27.6013 20.7976 27.118 20.735C26.6347 20.6723 26.1023 20.641 25.5208 20.641C24.5785 20.641 23.6587 20.7551 22.7612 20.9832C21.8638 21.2113 21.0262 21.5347 20.2484 21.9535ZM20.2484 17.9992V16.5857C21.0318 16.1894 21.8708 15.8921 22.7654 15.6939C23.6601 15.4957 24.5785 15.3966 25.5208 15.3966C26.0593 15.3966 26.5763 15.4312 27.0717 15.5004C27.5672 15.5696 28.0785 15.6677 28.6058 15.7949V17.1186C28.0972 16.9559 27.6013 16.8433 27.118 16.7806C26.6347 16.718 26.1023 16.6867 25.5208 16.6867C24.5785 16.6867 23.6587 16.8021 22.7612 17.033C21.8638 17.2639 21.0262 17.586 20.2484 17.9992ZM9.47917 23.3894C10.7524 23.3894 11.9906 23.5357 13.1937 23.8283C14.3969 24.1209 15.5892 24.5972 16.7708 25.2572V10.9487C15.7182 10.1971 14.5581 9.63341 13.2905 9.2576C12.0228 8.88181 10.7524 8.69392 9.47917 8.69392C8.60417 8.69392 7.83807 8.74626 7.18087 8.85095C6.5237 8.95565 5.79407 9.1501 4.99199 9.43428C4.76762 9.50907 4.6087 9.61657 4.51522 9.75679C4.42174 9.89703 4.37501 10.0513 4.37501 10.2196V23.367C4.37501 23.6287 4.46848 23.8204 4.65544 23.9419C4.84243 24.0634 5.04809 24.0774 5.27243 23.984C5.80528 23.8045 6.42086 23.6605 7.11919 23.5521C7.81751 23.4436 8.60417 23.3894 9.47917 23.3894ZM18.2292 25.2572C19.4108 24.5972 20.6032 24.1209 21.8063 23.8283C23.0094 23.5357 24.2476 23.3894 25.5208 23.3894C26.3958 23.3894 27.1825 23.4436 27.8808 23.5521C28.5791 23.6605 29.1947 23.8045 29.7276 23.984C29.9519 24.0774 30.1576 24.0634 30.3446 23.9419C30.5315 23.8204 30.625 23.6287 30.625 23.367V10.2196C30.625 10.0513 30.5783 9.90171 30.4848 9.77083C30.3913 9.63994 30.2324 9.52776 30.008 9.43428C29.2059 9.1501 28.4763 8.95565 27.8191 8.85095C27.1619 8.74626 26.3958 8.69392 25.5208 8.69392C24.2476 8.69392 22.9772 8.88181 21.7096 9.2576C20.4419 9.63341 19.2818 10.1971 18.2292 10.9487V25.2572ZM17.5 27.3718C16.3146 26.5604 15.0414 25.9368 13.6803 25.5012C12.3192 25.0656 10.9188 24.8478 9.47917 24.8478C8.72008 24.8478 7.97456 24.9113 7.2426 25.0385C6.51061 25.1656 5.7978 25.3694 5.10417 25.6499C4.57506 25.8611 4.0782 25.7975 3.61357 25.4591C3.14897 25.1207 2.91667 24.6533 2.91667 24.0569V9.96154C2.91667 9.60068 3.01155 9.266 3.2013 8.95751C3.39108 8.64903 3.65704 8.43402 3.99919 8.31249C4.8555 7.93481 5.7464 7.6609 6.67188 7.49076C7.59736 7.32062 8.53313 7.23555 9.47917 7.23555C10.9076 7.23555 12.3009 7.44121 13.6593 7.85253C15.0176 8.26386 16.2978 8.86215 17.5 9.64741C18.7022 8.86215 19.9825 8.26386 21.3407 7.85253C22.6991 7.44121 24.0924 7.23555 25.5208 7.23555C26.4669 7.23555 27.4026 7.32062 28.3281 7.49076C29.2536 7.6609 30.1445 7.93481 31.0008 8.31249C31.343 8.43402 31.6089 8.64903 31.7987 8.95751C31.9885 9.266 32.0833 9.60068 32.0833 9.96154V24.0569C32.0833 24.6533 31.8323 25.1114 31.3303 25.4311C30.8283 25.7508 30.2941 25.805 29.7276 25.5937C29.0526 25.332 28.3632 25.1422 27.6593 25.0244C26.9553 24.9067 26.2425 24.8478 25.5208 24.8478C24.0812 24.8478 22.6808 25.0656 21.3197 25.5012C19.9586 25.9368 18.6854 26.5604 17.5 27.3718Z" fill="#ECEBF3"/>
</svg>
